<svg width="40" height="40" viewBox="0 0 40 40" fill="none" xmlns="http://www.w3.org/2000/svg">
<path d="M14.0371 34.3627C16.9631 35.8984 18.4261 36.666 19.9999 36.666V19.9994L4.39662 11.7871C4.37364 11.824 4.35109 11.8613 4.32892 11.899C3.33325 13.5898 3.33325 15.6938 3.33325 19.9019V20.0969C3.33325 24.3049 3.33325 26.409 4.32892 28.0999C5.32457 29.7907 7.11764 30.7317 10.7037 32.6135L14.0371 34.3627Z" fill="white"/>
<path opacity="0.7" d="M29.2957 7.38652L25.9624 5.63727C23.0364 4.10175 21.5734 3.33398 19.9996 3.33398C18.4257 3.33398 16.9627 4.10175 14.0367 5.63727L10.7034 7.38652C7.19709 9.22652 5.40492 10.167 4.39624 11.7884L19.9996 20.0007L35.6029 11.7884C34.5941 10.167 32.8019 9.22652 29.2957 7.38652Z" fill="white"/>
<path opacity="0.5" d="M35.671 11.899C35.6488 11.8613 35.6263 11.824 35.6033 11.7871L20 19.9994V36.666C21.5738 36.666 23.0368 35.8984 25.9628 34.3627L29.2962 32.6135C32.8823 30.7317 34.6753 29.7907 35.671 28.0999C36.6667 26.409 36.6667 24.3049 36.6667 20.0969V19.9019C36.6667 15.6938 36.6667 13.5898 35.671 11.899Z" fill="white"/>
<path d="M10.5388 7.47319C10.5935 7.44446 10.6487 7.41553 10.7043 7.38636L13.1935 6.08008L28.3614 14.4225L35.0676 11.0694C35.2971 11.3292 35.4966 11.6031 35.6714 11.9001C35.9208 12.3234 36.1076 12.7727 36.2478 13.2744L29.5838 16.6064V21.6672C29.5838 22.3575 29.0241 22.9172 28.3338 22.9172C27.6434 22.9172 27.0838 22.3575 27.0838 21.6672V17.8563L21.2504 20.773V36.5072C20.8223 36.6138 20.4153 36.6672 20.0004 36.6672C19.5858 36.6672 19.1786 36.6138 18.7504 36.5072V20.773L3.75317 13.2744C3.89327 12.7727 4.08014 12.3234 4.32944 11.9001C4.50432 11.6031 4.70379 11.3292 4.93327 11.0694L20.0004 18.603L25.6441 15.7811L10.5388 7.47319Z" fill="white"/>
</svg>
