<svg width="40" height="40" viewBox="0 0 40 40" fill="none" xmlns="http://www.w3.org/2000/svg">
<path d="M12.6729 7.67363C15.566 4.78053 17.0126 3.33398 18.8101 3.33398C20.6076 3.33398 22.0543 4.78053 24.9473 7.67363L32.3119 15.0383C35.2049 17.9313 36.6516 19.3778 36.6516 21.1755C36.6516 22.973 35.2049 24.4195 32.3119 27.3127C29.4188 30.2057 27.9723 31.6523 26.1748 31.6523C24.3771 31.6523 22.9306 30.2057 20.0376 27.3127L12.6729 19.948C9.7798 17.055 8.33325 15.6084 8.33325 13.8108C8.33325 12.0133 9.7798 10.5667 12.6729 7.67363Z" fill="white"/>
<g opacity="0.5">
<path d="M13.9077 21.1816L4.70961 30.3796C4.13887 30.9505 3.85349 31.2358 3.68209 31.5326C3.21697 32.3383 3.21697 33.3308 3.68209 34.1365C3.85349 34.4333 4.13886 34.7186 4.70956 35.2893C5.28031 35.8601 5.56572 36.1455 5.86259 36.317C6.66821 36.7821 7.66076 36.7821 8.46637 36.317C8.76324 36.1455 9.04861 35.8601 9.61936 35.2895L18.8174 26.0913L13.9077 21.1816Z" fill="white"/>
<path d="M31.0918 13.8177L31.7133 13.1963C32.284 12.6255 32.5693 12.3401 32.7408 12.0433C33.206 11.2377 33.206 10.2451 32.7408 9.43948C32.5693 9.14261 32.284 8.85724 31.7133 8.28651C31.1425 7.71576 30.8571 7.43039 30.5603 7.25899C29.7546 6.79388 28.7621 6.79388 27.9565 7.25899C27.6596 7.43039 27.3743 7.71576 26.8035 8.28651L26.1821 8.90793L31.0918 13.8177Z" fill="white"/>
</g>
</svg>
