<svg width="40" height="40" viewBox="0 0 40 40" fill="none" xmlns="http://www.w3.org/2000/svg">
<path d="M8.29797 16.1411C4.98815 14.8172 3.33325 14.1553 3.33325 13.3327C3.33325 12.5101 4.98815 11.8481 8.29797 10.5242L12.9788 8.6519C16.2886 7.32798 17.9434 6.66602 19.9999 6.66602C22.0564 6.66602 23.7113 7.32798 27.0211 8.6519L31.7019 10.5242C35.0118 11.8481 36.6666 12.5101 36.6666 13.3327C36.6666 14.1553 35.0118 14.8172 31.7019 16.1411L27.0211 18.0135C23.7113 19.3373 22.0564 19.9993 19.9999 19.9993C17.9434 19.9993 16.2886 19.3373 12.9788 18.0135L8.29797 16.1411Z" fill="white"/>
<path fill-rule="evenodd" clip-rule="evenodd" d="M3.33325 13.3327C3.33325 14.1553 4.98815 14.8172 8.29797 16.1411L12.9788 18.0135C16.2886 19.3373 17.9434 19.9993 19.9999 19.9993C22.0564 19.9993 23.7113 19.3373 27.0211 18.0135L31.7019 16.1411C35.0118 14.8172 36.6666 14.1553 36.6666 13.3327C36.6666 12.5101 35.0118 11.8481 31.7019 10.5242L27.0211 8.6519C23.7113 7.32798 22.0564 6.66602 19.9999 6.66602C17.9434 6.66602 16.2886 7.32798 12.9788 8.6519L8.29797 10.5242C4.98815 11.8481 3.33325 12.5101 3.33325 13.3327Z" fill="white"/>
<path opacity="0.7" d="M9.61014 16.666L8.29797 17.1908C4.98815 18.5148 3.33325 19.1768 3.33325 19.9993C3.33325 20.8218 4.98815 21.4838 8.29797 22.8078L12.9788 24.6802C16.2886 26.004 17.9434 26.666 19.9999 26.666C22.0564 26.666 23.7113 26.004 27.0211 24.6802L31.7019 22.8078C35.0118 21.4838 36.6666 20.8218 36.6666 19.9993C36.6666 19.1768 35.0118 18.5148 31.7019 17.1908L30.3898 16.666L27.0211 18.0135C23.7113 19.3373 22.0564 19.9993 19.9999 19.9993C17.9434 19.9993 16.2886 19.3373 12.9788 18.0135L9.61014 16.666Z" fill="white"/>
<path opacity="0.4" d="M9.61014 23.334L8.29797 23.8588C4.98815 25.1828 3.33325 25.8448 3.33325 26.6673C3.33325 27.4898 4.98815 28.1518 8.29797 29.4758L12.9788 31.3482C16.2886 32.672 17.9434 33.334 19.9999 33.334C22.0564 33.334 23.7113 32.672 27.0211 31.3482L31.7019 29.4758C35.0118 28.1518 36.6666 27.4898 36.6666 26.6673C36.6666 25.8448 35.0118 25.1828 31.7019 23.8588L30.3898 23.334L27.0211 24.6815C23.7113 26.0053 22.0564 26.6673 19.9999 26.6673C17.9434 26.6673 16.2886 26.0053 12.9788 24.6815L9.61014 23.334Z" fill="white"/>
</svg>
