<svg width="300" height="108" viewBox="0 0 300 108" fill="none" xmlns="http://www.w3.org/2000/svg">
<path opacity="0.52" d="M0.75 0C0.335786 0 0 0.335786 0 0.75C0 1.16421 0.335786 1.5 0.75 1.5L0.75 0ZM84.25 0.75V0V0.75ZM291.25 103.75C291.25 105.959 293.041 107.75 295.25 107.75C297.459 107.75 299.25 105.959 299.25 103.75C299.25 101.541 297.459 99.75 295.25 99.75C293.041 99.75 291.25 101.541 291.25 103.75ZM201.623 10.1226L201.092 10.6529L201.623 10.1226ZM0.75 1.5H84.25V0H0.75L0.75 1.5ZM178.995 0H84.25V1.5H178.995V0ZM295.78 103.22L202.153 9.59225L201.092 10.6529L294.72 104.28L295.78 103.22ZM178.995 1.5C187.283 1.5 195.232 4.7924 201.092 10.6529L202.153 9.59225C196.011 3.45043 187.681 0 178.995 0V1.5Z" fill="white"/>
</svg>
