<svg width="72" height="72" viewBox="0 0 72 72" fill="none" xmlns="http://www.w3.org/2000/svg">
<path opacity="0.9" fill-rule="evenodd" clip-rule="evenodd" d="M36 66C49.2549 66 60 55.2549 60 42C60 28.7452 49.2549 18 36 18C22.7452 18 12 28.7452 12 42C12 55.2549 22.7452 66 36 66ZM36 33C35.1477 33 34.5777 34.0224 33.4377 36.0675L33.1428 36.5967C32.8191 37.1778 32.6571 37.4682 32.4045 37.6599C32.1519 37.8516 31.8375 37.923 31.2084 38.0652L30.6357 38.1948C28.4219 38.6958 27.315 38.946 27.0517 39.7929C26.7884 40.6398 27.5429 41.5221 29.0521 43.287L29.4425 43.7436C29.8714 44.2449 30.0858 44.4957 30.1824 44.8059C30.2787 45.1161 30.2463 45.4506 30.1815 46.1199L30.1224 46.7289C29.8943 49.0836 29.7802 50.2608 30.4695 50.7843C31.1592 51.3075 32.1954 50.8305 34.2681 49.8762L34.8042 49.6293C35.3934 49.3581 35.6877 49.2225 36 49.2225C36.3123 49.2225 36.6066 49.3581 37.1958 49.6293L37.7319 49.8762C39.8046 50.8305 40.8408 51.3075 41.5305 50.7843C42.2199 50.2608 42.1056 49.0836 41.8776 46.7289L41.8185 46.1199C41.7537 45.4506 41.7213 45.1161 41.8176 44.8059C41.9142 44.4957 42.1287 44.2449 42.5574 43.7436L42.948 43.287C44.457 41.5221 45.2118 40.6398 44.9484 39.7929C44.685 38.946 43.578 38.6958 41.3643 38.1948L40.7916 38.0652C40.1625 37.923 39.8481 37.8516 39.5955 37.6599C39.3429 37.4682 39.1809 37.1778 38.8572 36.5967L38.5623 36.0675C37.4223 34.0224 36.8523 33 36 33Z" fill="white"/>
<path opacity="0.5" fill-rule="evenodd" clip-rule="evenodd" d="M33 6H39C44.6568 6 47.4852 6 49.2426 7.75737C51 9.51471 51 12.3431 51 18V23.2639C46.8912 19.9702 41.6757 18 36 18C30.3243 18 25.1088 19.9702 21 23.2639V18C21 12.3431 21 9.51471 22.7574 7.75737C24.5147 6 27.3431 6 33 6Z" fill="white"/>
</svg>
