<svg width="40" height="40" viewBox="0 0 40 40" fill="none" xmlns="http://www.w3.org/2000/svg">
<path fill-rule="evenodd" clip-rule="evenodd" d="M9.79772 4.79845C8.33325 6.26292 8.33325 8.61993 8.33325 13.334V26.6673C8.33325 31.3813 8.33325 33.7383 9.79772 35.2028C11.2622 36.6673 13.6192 36.6673 18.3333 36.6673H21.6666C26.3806 36.6673 28.7376 36.6673 30.2021 35.2028C31.6666 33.7383 31.6666 31.3813 31.6666 26.6673V13.334C31.6666 8.61993 31.6666 6.26292 30.2021 4.79845C28.7376 3.33398 26.3806 3.33398 21.6666 3.33398H18.3333C13.6192 3.33398 11.2622 3.33398 9.79772 4.79845ZM13.7499 28.334C13.7499 27.6437 14.3096 27.084 14.9999 27.084H19.9999C20.6903 27.084 21.2499 27.6437 21.2499 28.334C21.2499 29.0243 20.6903 29.584 19.9999 29.584H14.9999C14.3096 29.584 13.7499 29.0243 13.7499 28.334ZM14.9999 20.4173C14.3096 20.4173 13.7499 20.977 13.7499 21.6673C13.7499 22.3577 14.3096 22.9173 14.9999 22.9173H24.9999C25.6903 22.9173 26.2499 22.3577 26.2499 21.6673C26.2499 20.977 25.6903 20.4173 24.9999 20.4173H14.9999ZM13.7499 15.0007C13.7499 14.3103 14.3096 13.7507 14.9999 13.7507H24.9999C25.6903 13.7507 26.2499 14.3103 26.2499 15.0007C26.2499 15.691 25.6903 16.2507 24.9999 16.2507H14.9999C14.3096 16.2507 13.7499 15.691 13.7499 15.0007Z" fill="white"/>
<path opacity="0.5" d="M8.72534 6.76367C8.33325 8.23581 8.33325 10.295 8.33325 13.3332V26.6667C8.33325 29.705 8.33325 31.7642 8.72537 33.2363L8.33325 33.2065C6.7081 33.0467 5.6142 32.6853 4.79772 31.8688C3.33325 30.4043 3.33325 28.0473 3.33325 23.3333V16.6667C3.33325 11.9526 3.33325 9.59559 4.79772 8.13114C5.6142 7.31465 6.7081 6.95339 8.33325 6.79352L8.72534 6.76367Z" fill="white"/>
<path opacity="0.5" d="M31.2744 33.2363C31.6666 31.7642 31.6666 29.705 31.6666 26.6667V13.3332C31.6666 10.295 31.6666 8.23581 31.2746 6.76367L31.6666 6.79352C33.2917 6.95339 34.3857 7.31465 35.2021 8.13114C36.6666 9.59559 36.6666 11.9526 36.6666 16.6667V23.3333C36.6666 28.0473 36.6666 30.4043 35.2021 31.8688C34.3857 32.6853 33.2917 33.0467 31.6666 33.2065L31.2744 33.2363Z" fill="white"/>
</svg>
