<svg width="40" height="40" viewBox="0 0 40 40" fill="none" xmlns="http://www.w3.org/2000/svg">
<path opacity="0.5" d="M20 38.334C28.2843 38.334 35 31.6183 35 23.334C35 15.0497 28.2843 8.33398 20 8.33398C11.7157 8.33398 5 15.0497 5 23.334C5 31.6183 11.7157 38.334 20 38.334Z" fill="white"/>
<path d="M20 15.416C20.6903 15.416 21.25 15.9757 21.25 16.666V23.3327C21.25 24.023 20.6903 24.5827 20 24.5827C19.3097 24.5827 18.75 24.023 18.75 23.3327V16.666C18.75 15.9757 19.3097 15.416 20 15.416Z" fill="white"/>
<path fill-rule="evenodd" clip-rule="evenodd" d="M15.4167 4.58398C15.4167 3.89363 15.9764 3.33398 16.6667 3.33398H23.3334C24.0237 3.33398 24.5834 3.89363 24.5834 4.58398C24.5834 5.27433 24.0237 5.83398 23.3334 5.83398H16.6667C15.9764 5.83398 15.4167 5.27433 15.4167 4.58398Z" fill="white"/>
</svg>
