<svg width="456" height="87" viewBox="0 0 456 87" fill="none" xmlns="http://www.w3.org/2000/svg">
<path opacity="0.52" d="M0.75 84.75C0.335786 84.75 0 85.0858 0 85.5C0 85.9142 0.335786 86.25 0.75 86.25V84.75ZM447.25 4C447.25 6.20914 449.041 8 451.25 8C453.459 8 455.25 6.20914 455.25 4C455.25 1.79086 453.459 0 451.25 0C449.041 0 447.25 1.79086 447.25 4ZM379.123 76.1274L378.592 75.5971L379.123 76.1274ZM0.75 86.25H230.25V84.75H0.75V86.25ZM450.72 3.46967L378.592 75.5971L379.653 76.6577L451.78 4.53033L450.72 3.46967ZM356.495 84.75H230.25V86.25H356.495V84.75ZM378.592 75.5971C372.732 81.4576 364.783 84.75 356.495 84.75V86.25C365.181 86.25 373.511 82.7996 379.653 76.6577L378.592 75.5971Z" fill="white"/>
</svg>
