<svg width="72" height="72" viewBox="0 0 72 72" fill="none" xmlns="http://www.w3.org/2000/svg">
<path opacity="0.5" d="M10.1326 15.2472C9 16.8608 9 21.6572 9 31.2501V35.9742C9 52.8882 21.7169 61.0965 29.6957 64.5819C31.86 65.5272 32.9421 66 36 66C39.0579 66 40.14 65.5272 42.3042 64.5819C50.283 61.0965 63 52.8882 63 35.9742V31.2501C63 21.6572 63 16.8608 61.8675 15.2472C60.735 13.6336 56.2251 12.0899 47.2053 9.00237L45.4869 8.41416C40.785 6.80472 38.4342 6 36 6C33.5658 6 31.215 6.80472 26.5132 8.41416L24.7947 9.00237C15.775 12.0899 11.2651 13.6336 10.1326 15.2472Z" fill="white"/>
<path d="M45.1785 31.4985C46.0059 30.5715 45.9255 29.1493 44.9985 28.3217C44.0715 27.494 42.6492 27.5746 41.8218 28.5015L32.7858 38.6217L30.1785 35.7015C29.3508 34.7745 27.9284 34.6941 27.0015 35.5218C26.0746 36.3492 25.994 37.7715 26.8217 38.6985L31.1073 43.4985C31.5342 43.9767 32.1447 44.25 32.7858 44.25C33.4266 44.25 34.0371 43.9767 34.464 43.4985L45.1785 31.4985Z" fill="white"/>
</svg>
