<svg width="20" height="20" viewBox="0 0 20 20" fill="none" xmlns="http://www.w3.org/2000/svg">
<path d="M17.258 3.04476C17.258 3.04476 18.8769 2.41351 18.742 3.94655C18.697 4.57781 18.2923 6.78718 17.9775 9.17693L16.8983 16.256C16.8983 16.256 16.8084 17.293 15.9989 17.4734C15.1895 17.6537 13.9753 16.8421 13.7505 16.6618C13.5706 16.5265 10.3778 14.4975 9.25358 13.5055C8.93879 13.235 8.57904 12.6939 9.29854 12.0626L14.0203 7.55372C14.5599 7.01264 15.0995 5.75014 12.8511 7.28318L6.55546 11.5667C6.55546 11.5667 5.83596 12.0176 4.48692 11.6118L1.56393 10.71C1.56393 10.71 0.484671 10.0336 2.3284 9.35726C6.82529 7.23806 12.3565 5.07377 17.258 3.04476Z" fill="white"/>
</svg>
