<svg width="52" height="52" viewBox="16 16 52 52" fill="none" xmlns="http://www.w3.org/2000/svg">
<g filter="url(#filter0_d_2052_10830)">
<path d="M36.4501 22.6007C35.9225 23.0503 35.6587 23.2751 35.377 23.4639C34.7311 23.8968 34.0057 24.1973 33.2429 24.3479C32.9101 24.4136 32.5646 24.4412 31.8735 24.4963C30.1372 24.6349 29.269 24.7042 28.5447 24.96C26.8694 25.5517 25.5517 26.8694 24.96 28.5447C24.7042 29.269 24.6349 30.1372 24.4963 31.8735C24.4412 32.5645 24.4136 32.9101 24.3479 33.2429C24.1973 34.0057 23.8968 34.7311 23.4639 35.377C23.2751 35.6587 23.0503 35.9226 22.6006 36.4502C21.4708 37.776 20.9059 38.4388 20.5746 39.1319C19.8085 40.735 19.8085 42.5983 20.5746 44.2015C20.9059 44.8946 21.4708 45.5574 22.6006 46.8831C23.0502 47.4107 23.2751 47.6746 23.4639 47.9563C23.8968 48.6022 24.1973 49.3276 24.3479 50.0905C24.4136 50.4233 24.4412 50.7688 24.4963 51.4598C24.6349 53.1961 24.7042 54.0643 24.96 54.7886C25.5517 56.4639 26.8694 57.7817 28.5447 58.3734C29.269 58.6291 30.1371 58.6984 31.8733 58.8371C32.5644 58.8921 32.9101 58.9198 33.2429 58.9855C34.0057 59.1361 34.7311 59.4366 35.377 59.8695C35.6587 60.0582 35.9226 60.2831 36.4502 60.7327C37.776 61.8626 38.4388 62.4274 39.1319 62.7587C40.735 63.5249 42.5983 63.5249 44.2015 62.7587C44.8946 62.4274 45.5574 61.8626 46.8831 60.7327C47.4107 60.2831 47.6746 60.0582 47.9563 59.8695C48.6022 59.4366 49.3276 59.1361 50.0905 58.9855C50.4233 58.9198 50.7688 58.8921 51.4598 58.8371C53.1959 58.6984 54.0643 58.6291 54.7886 58.3734C56.4639 57.7817 57.7817 56.4639 58.3734 54.7886C58.6291 54.0643 58.6984 53.1962 58.8371 51.46C58.8921 50.7691 58.9198 50.4233 58.9855 50.0905C59.1361 49.3276 59.4366 48.6022 59.8695 47.9563C60.0582 47.6746 60.2831 47.4107 60.7327 46.8831C61.8626 45.5574 62.4274 44.8946 62.7587 44.2015C63.5249 42.5983 63.5249 40.735 62.7587 39.1319C62.4274 38.4388 61.8626 37.776 60.7327 36.4502C60.2831 35.9226 60.0582 35.6587 59.8695 35.377C59.4366 34.7311 59.1361 34.0057 58.9855 33.2429C58.9198 32.9101 58.8921 32.5646 58.8371 31.8735C58.6984 30.1373 58.6291 29.269 58.3734 28.5447C57.7817 26.8694 56.4639 25.5517 54.7886 24.96C54.0643 24.7042 53.1961 24.6349 51.4598 24.4963C50.7688 24.4412 50.4233 24.4136 50.0905 24.3479C49.3276 24.1973 48.6022 23.8968 47.9563 23.4639C47.6746 23.2751 47.4107 23.0503 46.8831 22.6006C45.5574 21.4708 44.8946 20.9059 44.2015 20.5746C42.5983 19.8085 40.735 19.8085 39.1319 20.5746C38.4388 20.9059 37.7759 21.4709 36.4501 22.6007Z" fill="url(#paint0_linear_2052_10830)"/>
</g>
<path d="M51.1432 37.0356C51.8318 36.347 51.8318 35.2305 51.1432 34.5419C50.4544 33.8532 49.3379 33.8532 48.6494 34.5419L38.1404 45.0508L34.685 41.5952C33.9964 40.9067 32.8799 40.9067 32.1913 41.5952C31.5026 42.284 31.5026 43.4005 32.1913 44.0891L36.8936 48.7914C37.5822 49.4799 38.6987 49.4799 39.3873 48.7914L51.1432 37.0356Z" fill="white"/>
<defs>
<filter id="filter0_d_2052_10830" x="0" y="0" width="83.333" height="83.334" filterUnits="userSpaceOnUse" color-interpolation-filters="sRGB">
<feFlood flood-opacity="0" result="BackgroundImageFix"/>
<feColorMatrix in="SourceAlpha" type="matrix" values="0 0 0 0 0 0 0 0 0 0 0 0 0 0 0 0 0 0 127 0" result="hardAlpha"/>
<feOffset/>
<feGaussianBlur stdDeviation="10"/>
<feComposite in2="hardAlpha" operator="out"/>
<feColorMatrix type="matrix" values="0 0 0 0 0.968627 0 0 0 0 0.466667 0 0 0 0 0.384314 0 0 0 0.4 0"/>
<feBlend mode="normal" in2="BackgroundImageFix" result="effect1_dropShadow_2052_10830"/>
<feBlend mode="normal" in="SourceGraphic" in2="effect1_dropShadow_2052_10830" result="shape"/>
</filter>
<linearGradient id="paint0_linear_2052_10830" x1="20" y1="63.3333" x2="63.3333" y2="20" gradientUnits="userSpaceOnUse">
<stop stop-color="#F54B64"/>
<stop offset="1" stop-color="#F78361"/>
</linearGradient>
</defs>
</svg>
