<svg width="40" height="40" viewBox="0 0 40 40" fill="none" xmlns="http://www.w3.org/2000/svg">
<path opacity="0.5" d="M18.1564 36.6673H21.8434C27.5876 36.6673 30.4597 36.6673 32.4182 34.981C34.3766 33.2946 34.7827 30.4718 35.5952 24.826L36.0597 21.5972C36.6922 17.202 37.0084 15.0045 36.1076 13.1256C35.2069 11.2467 33.2896 10.1046 29.4551 7.82035L27.1469 6.44543C23.6649 4.37113 21.9237 3.33398 19.9999 3.33398C18.0761 3.33398 16.335 4.37113 12.8528 6.44543L10.5448 7.82033C6.71023 10.1046 4.79296 11.2467 3.8922 13.1256C2.99143 15.0045 3.30763 17.202 3.94003 21.5972L4.40465 24.826C5.217 30.4718 5.62318 33.2946 7.58163 34.981C9.54006 36.6673 12.4122 36.6673 18.1564 36.6673Z" fill="white"/>
<path d="M15.7444 25.6618C15.1898 25.2508 14.407 25.3672 13.9959 25.9217C13.5848 26.4763 13.7011 27.2592 14.2557 27.6703C15.8764 28.8717 17.8585 29.5828 20 29.5828C22.1417 29.5828 24.1237 28.8717 25.7445 27.6703C26.299 27.2592 26.4153 26.4763 26.0043 25.9217C25.5932 25.3672 24.8103 25.2508 24.2557 25.6618C23.0418 26.5617 21.5765 27.0828 20 27.0828C18.4235 27.0828 16.9583 26.5617 15.7444 25.6618Z" fill="white"/>
</svg>
