<svg width="304" height="87" viewBox="0 0 304 87" fill="none" xmlns="http://www.w3.org/2000/svg">
<path opacity="0.52" d="M0.75 84.75C0.335786 84.75 0 85.0858 0 85.5C0 85.9142 0.335786 86.25 0.75 86.25V84.75ZM295.25 4C295.25 6.20914 297.041 8 299.25 8C301.459 8 303.25 6.20914 303.25 4C303.25 1.79086 301.459 0 299.25 0C297.041 0 295.25 1.79086 295.25 4ZM227.123 76.1274L227.653 76.6577L227.123 76.1274ZM0.75 86.25H118.25V84.75H0.75V86.25ZM298.72 3.46967L226.592 75.5971L227.653 76.6577L299.78 4.53033L298.72 3.46967ZM204.495 84.75H118.25V86.25H204.495V84.75ZM226.592 75.5971C220.732 81.4576 212.783 84.75 204.495 84.75V86.25C213.181 86.25 221.511 82.7996 227.653 76.6577L226.592 75.5971Z" fill="white"/>
</svg>
