<svg xmlns="http://www.w3.org/2000/svg" fill="none" viewBox="20 20 33.33 33.33">
<g filter="url(#filter0_d_2052_9619)">
<path d="M36.6666 53.3333C45.8713 53.3333 53.3333 45.8713 53.3333 36.6667C53.3333 27.4619 45.8713 20 36.6666 20C27.4619 20 19.9999 27.4619 19.9999 36.6667C19.9999 45.8713 27.4619 53.3333 36.6666 53.3333Z" fill="url(#paint0_linear_2052_9619)"/>
</g>
<path d="M39.0605 29.1021C38.4988 28.7008 37.7182 28.8309 37.3168 29.3927C36.9155 29.9545 37.0457 30.7351 37.6075 31.1364L42.9767 34.9717C44.1399 35.8025 44.1399 37.5313 42.9767 38.3622L37.6075 42.1973C37.0457 42.5985 36.9155 43.3793 37.3168 43.941C37.7182 44.5028 38.4988 44.6328 39.0605 44.2317L44.4298 40.3965C46.9889 38.5685 46.9889 34.7652 44.4298 32.9372L39.0605 29.1021Z" fill="white"/>
<path d="M29.1672 41.885V31.4468C29.1672 30.1156 30.6509 29.3217 31.7584 30.0601L39.5872 35.2792C40.5767 35.9389 40.5767 37.393 39.5872 38.0527L31.7584 43.2719C30.6509 44.0102 29.1672 43.2162 29.1672 41.885Z" fill="white"/>
<defs>
<filter id="filter0_d_2052_9619" x="0" y="0" width="73.3333" height="73.334" filterUnits="userSpaceOnUse" color-interpolation-filters="sRGB">
<feFlood flood-opacity="0" result="BackgroundImageFix"/>
<feColorMatrix in="SourceAlpha" type="matrix" values="0 0 0 0 0 0 0 0 0 0 0 0 0 0 0 0 0 0 127 0" result="hardAlpha"/>
<feOffset/>
<feGaussianBlur stdDeviation="10"/>
<feComposite in2="hardAlpha" operator="out"/>
<feColorMatrix type="matrix" values="0 0 0 0 0.968627 0 0 0 0 0.466667 0 0 0 0 0.384314 0 0 0 0.4 0"/>
<feBlend mode="normal" in2="BackgroundImageFix" result="effect1_dropShadow_2052_9619"/>
<feBlend mode="normal" in="SourceGraphic" in2="effect1_dropShadow_2052_9619" result="shape"/>
</filter>
<linearGradient id="paint0_linear_2052_9619" x1="53.3333" y1="53.3333" x2="19.9999" y2="20" gradientUnits="userSpaceOnUse">
<stop stop-color="#F54B64"/>
<stop offset="1" stop-color="#F78361"/>
</linearGradient>
</defs>
</svg>