<svg xmlns="http://www.w3.org/2000/svg" fill="none" viewBox="19.344500000000004 19.626319999999996 31.5 30.8" style="max-height: 500px" width="31.5" height="30.8">
<g filter="url(#filter0_d_2052_12007)">
<path fill="url(#paint0_linear_2052_12007)" d="M31.3885 21.8005C31.0233 22.1117 30.8407 22.2674 30.6456 22.3981C30.1984 22.6978 29.6963 22.9058 29.1682 23.0101C28.9378 23.0556 28.6985 23.0747 28.2201 23.1128C27.0181 23.2088 26.417 23.2567 25.9156 23.4338C24.7558 23.8435 23.8435 24.7558 23.4338 25.9156C23.2567 26.417 23.2088 27.018 23.1128 28.2201C23.0747 28.6985 23.0556 28.9378 23.0101 29.1682C22.9058 29.6963 22.6978 30.1984 22.3981 30.6456C22.2674 30.8407 22.1117 31.0233 21.8004 31.3886C21.0183 32.3064 20.6272 32.7653 20.3978 33.2452C19.8674 34.355 19.8674 35.645 20.3978 36.7549C20.6272 37.2347 21.0182 37.6936 21.8004 38.6114C22.1116 38.9767 22.2674 39.1594 22.3981 39.3544C22.6978 39.8015 22.9058 40.3037 23.0101 40.8319C23.0556 41.0623 23.0747 41.3015 23.1128 41.7799C23.2088 42.982 23.2567 43.583 23.4338 44.0844C23.8435 45.2442 24.7558 46.1566 25.9156 46.5662C26.417 46.7432 27.018 46.7912 28.22 46.8872C28.6984 46.9253 28.9378 46.9445 29.1682 46.99C29.6963 47.0942 30.1984 47.3023 30.6456 47.602C30.8407 47.7326 31.0233 47.8883 31.3886 48.1996C32.3065 48.9818 32.7653 49.3729 33.2452 49.6022C34.355 50.1326 35.645 50.1326 36.7549 49.6022C37.2347 49.3729 37.6936 48.9818 38.6114 48.1996C38.9767 47.8883 39.1594 47.7326 39.3544 47.602C39.8015 47.3023 40.3037 47.0942 40.8319 46.99C41.0623 46.9445 41.3015 46.9253 41.7799 46.8872C42.9818 46.7912 43.583 46.7432 44.0844 46.5662C45.2442 46.1566 46.1566 45.2442 46.5662 44.0844C46.7432 43.583 46.7912 42.982 46.8872 41.78C46.9253 41.3017 46.9445 41.0623 46.99 40.8319C47.0942 40.3037 47.3023 39.8015 47.602 39.3544C47.7326 39.1594 47.8883 38.9767 48.1996 38.6114C48.9818 37.6936 49.3729 37.2347 49.6022 36.7549C50.1326 35.645 50.1326 34.355 49.6022 33.2452C49.3729 32.7653 48.9818 32.3065 48.1996 31.3886C47.8883 31.0233 47.7326 30.8407 47.602 30.6456C47.3023 30.1984 47.0942 29.6963 46.99 29.1682C46.9445 28.9378 46.9253 28.6985 46.8872 28.2201C46.7912 27.0181 46.7432 26.417 46.5662 25.9156C46.1566 24.7558 45.2442 23.8435 44.0844 23.4338C43.583 23.2567 42.982 23.2088 41.7799 23.1128C41.3015 23.0747 41.0623 23.0556 40.8319 23.0101C40.3037 22.9058 39.8015 22.6978 39.3544 22.3981C39.1594 22.2674 38.9767 22.1117 38.6114 21.8004C37.6936 21.0182 37.2347 20.6272 36.7549 20.3978C35.645 19.8674 34.355 19.8674 33.2452 20.3978C32.7653 20.6272 32.3064 21.0183 31.3885 21.8005Z"/>
</g>
<path fill="white" d="M41.5606 31.795C42.0373 31.3182 42.0373 30.5453 41.5606 30.0685C41.0838 29.5917 40.3108 29.5917 39.8341 30.0685L32.5587 37.3439L30.1665 34.9516C29.6898 34.4749 28.9168 34.4749 28.4401 34.9516C27.9633 35.4284 27.9633 36.2014 28.4401 36.6781L31.6955 39.9335C32.1723 40.4102 32.9452 40.4102 33.4219 39.9335L41.5606 31.795Z"/>
<defs>
<filter color-interpolation-filters="sRGB" filterUnits="userSpaceOnUse" height="70" width="70" y="0" x="0" id="filter0_d_2052_12007">
<feFlood result="BackgroundImageFix" flood-opacity="0"/>
<feColorMatrix result="hardAlpha" values="0 0 0 0 0 0 0 0 0 0 0 0 0 0 0 0 0 0 127 0" type="matrix" in="SourceAlpha"/>
<feOffset/>
<feGaussianBlur stdDeviation="10"/>
<feComposite operator="out" in2="hardAlpha"/>
<feColorMatrix values="0 0 0 0 0.968627 0 0 0 0 0.466667 0 0 0 0 0.384314 0 0 0 0.4 0" type="matrix"/>
<feBlend result="effect1_dropShadow_2052_12007" in2="BackgroundImageFix" mode="normal"/>
<feBlend result="shape" in2="effect1_dropShadow_2052_12007" in="SourceGraphic" mode="normal"/>
</filter>
<linearGradient gradientUnits="userSpaceOnUse" y2="20" x2="50" y1="50" x1="20" id="paint0_linear_2052_12007">
<stop stop-color="#F54B64"/>
<stop stop-color="#F78361" offset="1"/>
</linearGradient>
</defs>
</svg>