<svg width="140" height="40" viewBox="0 0 140 40" fill="none" xmlns="http://www.w3.org/2000/svg">
<path fill-rule="evenodd" clip-rule="evenodd" d="M38.5108 5.52161C38.5108 10.1922 38.5108 14.8627 38.5108 19.5333C33.7924 19.5333 29.074 19.5333 24.3556 19.5333C23.9832 19.3721 23.9271 19.1189 24.1871 18.7736C28.0629 16.3258 31.9387 13.878 35.8146 11.4302C36.0078 11.0478 36.036 10.6539 35.8988 10.2484C35.6752 9.52102 35.4785 8.78954 35.309 8.05384C34.6978 8.18552 34.1362 8.43874 33.6239 8.81351C30.1975 11.0081 26.7709 13.2027 23.3445 15.3973C21.6215 16.4561 21.2002 17.8911 22.0807 19.7021C22.5955 20.4187 23.2977 20.7844 24.1871 20.7994C29.0019 20.8283 33.8045 20.9127 38.595 21.0526C38.7543 25.5604 38.6982 30.0622 38.4265 34.5579C37.6151 36.9752 35.9581 38.3821 33.4554 38.7783C28.737 38.7783 24.0186 38.7783 19.3002 38.7783C19.3002 33.9952 19.3002 29.212 19.3002 24.429C19.6805 24.209 19.9894 24.3216 20.227 24.7666C22.6583 28.6829 25.1299 32.5657 27.6416 36.4149C28.6514 36.0119 29.6904 35.7305 30.7591 35.5708C30.6156 35.1111 30.4189 34.6609 30.1693 34.2203C27.8804 30.7037 25.6336 27.1585 23.4288 23.5849C22.8894 22.9879 22.2996 22.4533 21.6594 21.9811C19.5083 21.5527 18.3006 22.4249 18.0363 24.5978C17.9521 27.0731 17.9239 29.5491 17.9521 32.0257C17.7842 34.2466 17.7281 36.4976 17.7836 38.7783C13.4022 38.7783 9.02084 38.7783 4.63948 38.7783C2.0629 38.3355 0.546272 36.8161 0.0895996 34.2203C0.0895996 29.3246 0.0895996 24.429 0.0895996 19.5333C3.17897 19.5333 6.2685 19.5333 9.35787 19.5333C11.044 19.5053 12.7292 19.5333 14.4133 19.6177C14.5013 19.7124 14.5574 19.825 14.5818 19.9553C10.712 22.57 6.77994 25.1022 2.78582 27.552C2.64141 27.6684 2.52918 27.809 2.4488 27.9741C2.73021 28.9883 3.01113 30.0012 3.29136 31.0128C3.75023 30.8689 4.19966 30.6719 4.63948 30.4219C8.14979 28.1289 11.6886 25.8781 15.2559 23.6693C15.8517 23.1289 16.3854 22.5381 16.8567 21.8967C17.2669 20.214 16.6771 19.0605 15.0873 18.436C12.3994 18.1959 9.70315 18.1115 6.99867 18.1828C4.72542 18.0146 2.42251 17.9584 0.0895996 18.014C0.0895996 13.6248 0.0895996 9.23555 0.0895996 4.84634C0.44449 2.54893 1.73649 1.05761 3.96542 0.372728C9.07679 0.288321 14.1883 0.260128 19.3002 0.288321C19.3283 5.07171 19.3002 9.85493 19.2159 14.6377C19.1214 14.7258 19.009 14.782 18.8789 14.8065C18.491 14.4727 18.154 14.0789 17.8678 13.6248C15.6139 9.98104 13.339 6.3515 11.043 2.73615C9.88902 2.88622 8.76571 3.19583 7.67273 3.66463C10.2057 7.58116 12.7052 11.5201 15.1716 15.4817C16.4408 17.5708 18.0136 17.8521 19.89 16.3258C20.0917 15.8887 20.2602 15.4385 20.3955 14.9753C20.6399 10.0859 20.7241 5.19022 20.6483 0.288321C25.4314 0.209484 30.2059 0.293891 34.972 0.541544C37.2404 1.4339 38.42 3.09404 38.5108 5.52161Z" fill="white"/>
<path fill-rule="evenodd" clip-rule="evenodd" d="M98.7156 29.8405C99.2531 29.9593 99.8143 29.9995 100.399 29.961C100.399 30.4431 100.399 30.9252 100.399 31.4074C98.9561 31.4074 97.5132 31.4074 96.0704 31.4074C94.763 31.5618 93.9815 30.9992 93.7257 29.72C93.6857 29.3183 93.6455 28.9164 93.6055 28.5147C93.5454 19.9975 93.5253 11.4802 93.5454 2.96289C94.868 2.96289 96.1906 2.96289 97.5132 2.96289C97.4932 11.7213 97.5132 20.4796 97.5734 29.2379C97.8072 29.7067 98.188 29.9076 98.7156 29.8405Z" fill="white"/>
<path fill-rule="evenodd" clip-rule="evenodd" d="M55.4298 6.6996C56.7457 6.60535 57.6475 7.16785 58.1351 8.38698C58.3848 9.79571 57.8437 10.7398 56.5119 11.2194C55.0306 11.4304 54.0886 10.8077 53.6863 9.3512C53.6364 8.04384 54.2176 7.15989 55.4298 6.6996Z" fill="white"/>
<path fill-rule="evenodd" clip-rule="evenodd" d="M105.209 6.69922C106.94 6.88772 107.721 7.85194 107.553 9.59188C106.849 11.1401 105.707 11.6022 104.126 10.9779C102.615 9.51305 102.695 8.14711 104.367 6.88001C104.672 6.85759 104.952 6.79733 105.209 6.69922Z" fill="white"/>
<path fill-rule="evenodd" clip-rule="evenodd" d="M53.9868 14.0508C55.2694 14.0508 56.5519 14.0508 57.8345 14.0508C57.8345 19.8361 57.8345 25.6214 57.8345 31.4067C56.5519 31.4067 55.2694 31.4067 53.9868 31.4067C53.9868 25.6214 53.9868 19.8361 53.9868 14.0508Z" fill="white"/>
<path fill-rule="evenodd" clip-rule="evenodd" d="M72.9847 15.4971C71.7823 15.4971 70.5799 15.4971 69.3775 15.4971C69.2574 20.7798 69.2174 26.083 69.2573 31.4067C68.0149 31.4067 66.7723 31.4067 65.5299 31.4067C65.5698 26.083 65.5298 20.7798 65.4096 15.4971C64.2073 15.4971 63.0049 15.4971 61.8025 15.4971C61.8025 15.015 61.8025 14.5329 61.8025 14.0508C65.5299 14.0508 69.2573 14.0508 72.9847 14.0508C72.9847 14.5329 72.9847 15.015 72.9847 15.4971Z" fill="white"/>
<path fill-rule="evenodd" clip-rule="evenodd" d="M103.405 14.0508C104.688 14.0508 105.97 14.0508 107.253 14.0508C107.253 19.8361 107.253 25.6214 107.253 31.4067C105.97 31.4067 104.688 31.4067 103.405 31.4067C103.405 25.6214 103.405 19.8361 103.405 14.0508Z" fill="white"/>
<path fill-rule="evenodd" clip-rule="evenodd" d="M122.403 15.4971C121.2 15.4971 119.998 15.4971 118.795 15.4971C118.675 20.7798 118.635 26.083 118.675 31.4067C117.393 31.4067 116.11 31.4067 114.828 31.4067C114.828 26.1035 114.828 20.8003 114.828 15.4971C113.625 15.4971 112.423 15.4971 111.22 15.4971C111.22 15.015 111.22 14.5329 111.22 14.0508C114.948 14.0508 118.675 14.0508 122.403 14.0508C122.403 14.5329 122.403 15.015 122.403 15.4971Z" fill="white"/>
<path fill-rule="evenodd" clip-rule="evenodd" d="M123.966 14.1717C125.267 14.0518 126.589 14.0117 127.934 14.0512C129.518 18.0742 131.142 22.0917 132.803 26.1039C134.43 22.0773 136.094 18.0598 137.793 14.0512C138.39 13.9314 138.991 13.8912 139.597 13.9307C136.372 22.1248 133.045 30.2806 129.617 38.3977C128.976 38.5584 128.334 38.5584 127.693 38.3977C128.661 36.0285 129.663 33.6782 130.699 31.3469C128.422 25.631 126.177 19.9059 123.966 14.1717Z" fill="white"/>
<path fill-rule="evenodd" clip-rule="evenodd" d="M86.2108 31.2863C87.5452 31.4452 88.8678 31.4452 90.1786 31.2863C88.698 26.0497 87.155 20.8269 85.5494 15.6177C85.1753 14.8006 84.5942 14.178 83.806 13.7495C81.7547 13.0147 80.2919 13.6373 79.4173 15.6177C77.8434 20.8929 76.3804 26.1961 75.0286 31.5273C75.6213 31.5638 76.2025 31.5236 76.772 31.4068C77.2256 29.6418 77.7265 27.8941 78.275 26.1638C80.4404 26.0634 82.6047 26.0836 84.7679 26.2241C85.2871 27.9047 85.768 29.5921 86.2108 31.2863ZM84.1667 24.3559C84.0609 24.1925 84.0207 24.0117 84.0465 23.8136C83.4875 21.5092 82.8662 19.2192 82.1828 16.9435C81.984 16.2147 81.5833 16.054 80.9804 16.4614C80.2438 18.9382 79.5425 21.429 78.8762 23.9341V24.4162C80.6401 24.4363 82.4037 24.4162 84.1667 24.3559Z" fill="white"/>
</svg>
