<svg width="40" height="40" viewBox="0 0 40 40" fill="none" xmlns="http://www.w3.org/2000/svg">
<path opacity="0.5" d="M5.28587 5.2866C3.33325 7.23923 3.33325 10.3819 3.33325 16.6673V23.334C3.33325 29.6193 3.33325 32.7621 5.28587 34.7146C7.2385 36.6673 10.3812 36.6673 16.6666 36.6673H23.3333C29.6186 36.6673 32.7614 36.6673 34.7139 34.7146C36.6666 32.7621 36.6666 29.6193 36.6666 23.334V16.6673C36.6666 10.3819 36.6666 7.23923 34.7139 5.2866C32.7614 3.33398 29.6186 3.33398 23.3333 3.33398H16.6666C10.3812 3.33398 7.2385 3.33398 5.28587 5.2866Z" fill="white"/>
<path d="M14.5833 10C14.5833 9.30965 14.0237 8.75 13.3333 8.75C12.643 8.75 12.0833 9.30965 12.0833 10V12.0833H10C9.30965 12.0833 8.75 12.643 8.75 13.3333C8.75 14.0237 9.30965 14.5833 10 14.5833H12.0833V20.0867C12.0833 21.5842 12.0832 22.8328 12.2165 23.8242C12.3572 24.8705 12.6666 25.8152 13.4258 26.5742C14.1849 27.3333 15.1295 27.6428 16.1759 27.7835C17.1672 27.9168 18.4158 27.9167 19.9133 27.9167H25.4167V30C25.4167 30.6903 25.9763 31.25 26.6667 31.25C27.357 31.25 27.9167 30.6903 27.9167 30V27.9167H30C30.6903 27.9167 31.25 27.357 31.25 26.6667C31.25 25.9763 30.6903 25.4167 30 25.4167H20C18.3933 25.4167 17.314 25.414 16.509 25.3058C15.7399 25.2023 15.4107 25.0237 15.1935 24.8065C14.9763 24.5893 14.7976 24.2602 14.6942 23.491C14.586 22.686 14.5833 21.6067 14.5833 20V10Z" fill="white"/>
<path d="M20.0001 14.584C21.6067 14.584 22.6861 14.5866 23.4911 14.6949C24.2602 14.7983 24.5894 14.977 24.8066 15.1942C25.0237 15.4114 25.2024 15.7405 25.3059 16.5096C25.4141 17.3147 25.4167 18.394 25.4167 20.0007V22.4517C25.4167 23.142 25.9764 23.7017 26.6667 23.7017C27.3571 23.7017 27.9167 23.142 27.9167 22.4517V19.914C27.9167 18.4165 27.9169 17.1678 27.7836 16.1765C27.6429 15.1302 27.3334 14.1855 26.5742 13.4264C25.8152 12.6673 24.8706 12.3579 23.8242 12.2172C22.8329 12.0839 21.5842 12.0839 20.0867 12.084H17.5491C16.8587 12.084 16.2991 12.6436 16.2991 13.334C16.2991 14.0243 16.8587 14.584 17.5491 14.584H20.0001Z" fill="white"/>
</svg>
