<svg width="289" height="106" viewBox="0 0 289 106" fill="none" xmlns="http://www.w3.org/2000/svg">
<path opacity="0.52" d="M287.5 104.25C287.914 104.25 288.25 104.586 288.25 105C288.25 105.414 287.914 105.75 287.5 105.75V104.25ZM8 4C8 6.20914 6.20914 8 4 8C1.79086 8 0 6.20914 0 4C0 1.79086 1.79086 0 4 0C6.20914 0 8 1.79086 8 4ZM95.6274 95.6274L96.1577 95.0971L95.6274 95.6274ZM287.5 105.75H118.255V104.25H287.5V105.75ZM4.53033 3.46967L96.1577 95.0971L95.0971 96.1577L3.46967 4.53033L4.53033 3.46967ZM118.255 105.75C109.569 105.75 101.239 102.3 95.0971 96.1577L96.1577 95.0971C102.018 100.958 109.967 104.25 118.255 104.25V105.75Z" fill="white"/>
</svg>
