<svg width="22" height="22" viewBox="0 0 22 22" fill="none" xmlns="http://www.w3.org/2000/svg">
<path d="M15.5834 16.5002C15.3403 16.5002 15.1071 16.4036 14.9352 16.2317C14.7633 16.0598 14.6668 15.8266 14.6668 15.5835V8.62599L7.06759 16.2343C6.89498 16.4069 6.66087 16.5039 6.41676 16.5039C6.17265 16.5039 5.93853 16.4069 5.76592 16.2343C5.59331 16.0617 5.49634 15.8276 5.49634 15.5835C5.49634 15.3394 5.59331 15.1053 5.76592 14.9327L13.3743 7.33349H6.41676C6.17364 7.33349 5.94048 7.23691 5.76857 7.065C5.59667 6.8931 5.50009 6.65994 5.50009 6.41682C5.50009 6.17371 5.59667 5.94055 5.76857 5.76864C5.94048 5.59673 6.17364 5.50016 6.41676 5.50016H15.5834C15.7032 5.5016 15.8216 5.52652 15.9318 5.57349C16.1557 5.66651 16.3337 5.8445 16.4268 6.06849C16.4737 6.17869 16.4986 6.29704 16.5001 6.41682V15.5835C16.5001 15.8266 16.4035 16.0598 16.2316 16.2317C16.0597 16.4036 15.8265 16.5002 15.5834 16.5002Z" fill="#FAFCFB"/>
</svg>
