<svg width="40" height="40" viewBox="0 0 40 40" fill="none" xmlns="http://www.w3.org/2000/svg">
<path opacity="0.5" d="M18.0779 36.5577C9.77847 35.6047 3.33325 28.5553 3.33325 20.0007C3.33325 10.7959 10.7952 3.33398 19.9999 3.33398C29.2046 3.33398 36.6666 10.7959 36.6666 20.0007C36.6666 28.5948 31.1954 27.8882 26.5224 27.2845C23.8273 26.9363 21.3976 26.6225 20.4364 28.1473C19.7789 29.19 20.4896 30.4903 21.3613 31.362C22.4504 32.4511 22.4504 34.2168 21.3613 35.306C20.4896 36.1777 19.3026 36.6983 18.0779 36.5577Z" fill="white"/>
<path d="M18.4751 11.666C18.4751 13.0467 17.3558 14.166 15.9751 14.166C14.5944 14.166 13.4751 13.0467 13.4751 11.666C13.4751 10.2853 14.5944 9.16602 15.9751 9.16602C17.3558 9.16602 18.4751 10.2853 18.4751 11.666Z" fill="white"/>
<path d="M10.8333 21.668C12.214 21.668 13.3333 20.5488 13.3333 19.168C13.3333 17.7873 12.214 16.668 10.8333 16.668C9.45254 16.668 8.33325 17.7873 8.33325 19.168C8.33325 20.5488 9.45254 21.668 10.8333 21.668Z" fill="white"/>
<path d="M29.1667 21.668C30.5474 21.668 31.6667 20.5488 31.6667 19.168C31.6667 17.7873 30.5474 16.668 29.1667 16.668C27.7861 16.668 26.6667 17.7873 26.6667 19.168C26.6667 20.5488 27.7861 21.668 29.1667 21.668Z" fill="white"/>
<path d="M24.1667 14.168C25.5474 14.168 26.6667 13.0487 26.6667 11.668C26.6667 10.2873 25.5474 9.16797 24.1667 9.16797C22.7861 9.16797 21.6667 10.2873 21.6667 11.668C21.6667 13.0487 22.7861 14.168 24.1667 14.168Z" fill="white"/>
</svg>
