<svg width="40" height="40" viewBox="0 0 40 40" fill="none" xmlns="http://www.w3.org/2000/svg">
<path opacity="0.5" d="M5.6292 8.47133C5 9.36778 5 12.0324 5 17.3618V19.9863C5 29.383 12.0649 33.9431 16.4976 35.8795C17.7 36.4047 18.3012 36.6673 20 36.6673C21.6988 36.6673 22.3 36.4047 23.5023 35.8795C27.935 33.9431 35 29.383 35 19.9863V17.3618C35 12.0324 35 9.36778 34.3708 8.47133C33.7417 7.57488 31.2362 6.71725 26.2252 5.00197L25.2705 4.67518C22.6583 3.78105 21.3523 3.33398 20 3.33398C18.6477 3.33398 17.3417 3.78105 14.7295 4.67518L13.7748 5.00197C8.76387 6.71725 6.25838 7.57488 5.6292 8.47133Z" fill="white"/>
<path d="M25.0991 17.4985C25.5588 16.9835 25.5141 16.1934 24.9991 15.7336C24.4841 15.2738 23.6939 15.3185 23.2343 15.8335L18.2143 21.4559L16.7658 19.8335C16.3059 19.3185 15.5157 19.2738 15.0008 19.7337C14.4858 20.1933 14.4411 20.9835 14.9008 21.4985L17.2818 24.1652C17.5189 24.4309 17.8581 24.5827 18.2143 24.5827C18.5703 24.5827 18.9094 24.4309 19.1466 24.1652L25.0991 17.4985Z" fill="white"/>
</svg>
