<svg width="426" height="87" viewBox="0 0 426 87" fill="none" xmlns="http://www.w3.org/2000/svg">
<path opacity="0.52" d="M0.75 84.75C0.335786 84.75 0 85.0858 0 85.5C0 85.9142 0.335786 86.25 0.75 86.25V84.75ZM417.75 4C417.75 6.20914 419.541 8 421.75 8C423.959 8 425.75 6.20914 425.75 4C425.75 1.79086 423.959 0 421.75 0C419.541 0 417.75 1.79086 417.75 4ZM349.623 76.1274L349.092 75.5971L349.623 76.1274ZM0.75 86.25H200.75V84.75H0.75V86.25ZM421.22 3.46967L349.092 75.5971L350.153 76.6577L422.28 4.53033L421.22 3.46967ZM326.995 84.75H200.75V86.25H326.995V84.75ZM349.092 75.5971C343.232 81.4576 335.283 84.75 326.995 84.75V86.25C335.681 86.25 344.011 82.7996 350.153 76.6577L349.092 75.5971Z" fill="white"/>
</svg>
