<svg xmlns="http://www.w3.org/2000/svg" fill="none" viewBox="20 20 33.33 33.33">
<g filter="url(#filter0_d_2052_9608)">
<path d="M20 36.6667C20 28.8099 20 24.8815 22.4408 22.4408C24.8815 20 28.8099 20 36.6667 20C44.5233 20 48.4518 20 50.8925 22.4408C53.3333 24.8815 53.3333 28.8099 53.3333 36.6667C53.3333 44.5233 53.3333 48.4518 50.8925 50.8925C48.4518 53.3333 44.5233 53.3333 36.6667 53.3333C28.8099 53.3333 24.8815 53.3333 22.4408 50.8925C20 48.4518 20 44.5233 20 36.6667Z" fill="url(#paint0_linear_2052_9608)"/>
</g>
<path fill-rule="evenodd" clip-rule="evenodd" d="M37.5 28.332C37.5 27.6417 38.0597 27.082 38.75 27.082H45C45.6904 27.082 46.25 27.6417 46.25 28.332V34.582C46.25 35.2724 45.6904 35.832 45 35.832C44.3097 35.832 43.75 35.2724 43.75 34.582V31.3498L37.5505 37.5492C37.0624 38.0374 36.271 38.0374 35.7829 37.5492C35.2947 37.061 35.2947 36.2697 35.7829 35.7815L41.9822 29.582H38.75C38.0597 29.582 37.5 29.0224 37.5 28.332Z" fill="white"/>
<path d="M20 45.832C20 42.2965 20 40.5287 21.0983 39.4304C22.1967 38.332 23.9645 38.332 27.5 38.332C31.0355 38.332 32.8033 38.332 33.9017 39.4304C35 40.5287 35 42.2965 35 45.832C35 49.3675 35 51.1354 33.9017 52.2337C32.8033 53.332 31.0355 53.332 27.5 53.332C23.9645 53.332 22.1967 53.332 21.0983 52.2337C20 51.1354 20 49.3675 20 45.832Z" fill="white"/>
<defs>
<filter id="filter0_d_2052_9608" x="0" y="0" width="73.3333" height="73.334" filterUnits="userSpaceOnUse" color-interpolation-filters="sRGB">
<feFlood flood-opacity="0" result="BackgroundImageFix"/>
<feColorMatrix in="SourceAlpha" type="matrix" values="0 0 0 0 0 0 0 0 0 0 0 0 0 0 0 0 0 0 127 0" result="hardAlpha"/>
<feOffset/>
<feGaussianBlur stdDeviation="10"/>
<feComposite in2="hardAlpha" operator="out"/>
<feColorMatrix type="matrix" values="0 0 0 0 0.968627 0 0 0 0 0.466667 0 0 0 0 0.384314 0 0 0 0.4 0"/>
<feBlend mode="normal" in2="BackgroundImageFix" result="effect1_dropShadow_2052_9608"/>
<feBlend mode="normal" in="SourceGraphic" in2="effect1_dropShadow_2052_9608" result="shape"/>
</filter>
<linearGradient id="paint0_linear_2052_9608" x1="20" y1="53.3333" x2="53.3333" y2="20" gradientUnits="userSpaceOnUse">
<stop stop-color="#F54B64"/>
<stop offset="1" stop-color="#F78361"/>
</linearGradient>
</defs>
</svg>