<svg width="72" height="72" viewBox="0 0 72 72" fill="none" xmlns="http://www.w3.org/2000/svg">
<path opacity="0.5" d="M36.0018 48C18.7221 48 15.661 30.7785 15.1187 17.1194C14.9678 13.3199 14.8924 11.4202 16.3195 9.66249C17.7467 7.90482 19.4548 7.61661 22.871 7.04022C26.2432 6.47127 30.6513 6 36.0018 6C41.3526 6 45.7608 6.47127 49.1328 7.04022C52.5489 7.61661 54.2571 7.90482 55.6842 9.66249C57.1113 11.4202 57.036 13.3199 56.8851 17.1194C56.343 30.7785 53.2818 48 36.0018 48Z" fill="white"/>
<path opacity="0.64" d="M52.9211 37.266L61.3706 32.5716C63.6278 31.3176 64.7564 30.6906 65.378 29.6343C65.9996 28.5779 65.9996 27.2868 65.9996 24.7046V24.487C65.9999 21.3562 65.9999 19.7908 65.1503 18.6122C64.301 17.4337 62.816 16.9387 59.8457 15.9486L56.9999 15L56.9492 15.2539C56.9351 15.8217 56.9105 16.4402 56.8835 17.1194C56.6186 23.7926 55.7525 31.3161 52.9211 37.266Z" fill="white"/>
<path opacity="0.64" d="M15.1172 17.1194C15.3822 23.7929 16.2484 31.3167 19.0802 37.2669L10.6292 32.5716C8.37189 31.3176 7.24326 30.6906 6.62169 29.6343C6.00012 28.5779 6.00009 27.2868 6 24.7046V24.487C5.99991 21.3562 5.99988 19.7908 6.8493 18.6122C7.69872 17.4337 9.18378 16.9387 12.154 15.9486L14.9998 15L15.0518 15.2601C15.0659 15.8262 15.0903 16.4427 15.1172 17.1194Z" fill="white"/>
<path opacity="0.64" fill-rule="evenodd" clip-rule="evenodd" d="M15.75 66C15.75 64.7574 16.7574 63.75 18 63.75H54C55.2426 63.75 56.25 64.7574 56.25 66C56.25 67.2426 55.2426 68.25 54 68.25H18C16.7574 68.25 15.75 67.2426 15.75 66Z" fill="white"/>
<path opacity="0.5" d="M46.3746 63.7509H25.6289L26.5194 58.5015C26.7998 57.099 28.031 56.0898 29.4611 56.0898H42.5424C43.9722 56.0898 45.2037 57.099 45.4839 58.5015L46.3746 63.7509Z" fill="white"/>
<path opacity="0.64" d="M36.0006 47.9997C35.2218 47.9997 34.4721 47.9646 33.75 47.8965V56.088H38.25V47.8965C37.5282 47.9646 36.7788 47.9997 36.0006 47.9997Z" fill="white"/>
<path d="M33.4377 18.0675C34.5777 16.0225 35.1477 15 36 15C36.8523 15 37.4223 16.0225 38.5623 18.0675L38.8572 18.5966C39.1809 19.1777 39.3429 19.4683 39.5955 19.66C39.8481 19.8517 40.1625 19.9229 40.7916 20.0652L41.3643 20.1948C43.578 20.6957 44.685 20.9461 44.9484 21.793C45.2118 22.6398 44.457 23.5222 42.948 25.2869L42.5574 25.7435C42.1287 26.245 41.9142 26.4957 41.8176 26.8059C41.7213 27.1162 41.7537 27.4507 41.8185 28.1198L41.8776 28.729C42.1056 31.0836 42.2199 32.2608 41.5305 32.7843C40.8408 33.3075 39.8046 32.8305 37.7319 31.8762L37.1958 31.6293C36.6066 31.3581 36.3123 31.2225 36 31.2225C35.6877 31.2225 35.3934 31.3581 34.8042 31.6293L34.2681 31.8762C32.1954 32.8305 31.1592 33.3075 30.4695 32.7843C29.7802 32.2608 29.8943 31.0836 30.1224 28.729L30.1815 28.1198C30.2463 27.4507 30.2787 27.1162 30.1824 26.8059C30.0858 26.4957 29.8714 26.245 29.4425 25.7435L29.0521 25.2869C27.5429 23.5222 26.7883 22.6398 27.0517 21.793C27.315 20.9461 28.4219 20.6957 30.6357 20.1948L31.2084 20.0652C31.8375 19.9229 32.1519 19.8517 32.4045 19.66C32.6571 19.4683 32.8191 19.1777 33.1428 18.5966L33.4377 18.0675Z" fill="white"/>
</svg>
