<svg xmlns="http://www.w3.org/2000/svg" fill="none" viewBox="20 20 30 33.33">
<g filter="url(#filter0_d_2052_9614)">
<path d="M20 34.0278C20 28.6985 20 26.0338 20.6292 25.1373C21.2584 24.2409 23.7639 23.3833 28.7748 21.668L29.7295 21.3412C32.3417 20.4471 33.6477 20 35 20C36.3523 20 37.6583 20.4471 40.2705 21.3412L41.2252 21.668C46.2362 23.3833 48.7417 24.2409 49.3708 25.1373C50 26.0338 50 28.6985 50 34.0278C50 34.8327 50 35.7057 50 36.6523C50 46.049 42.935 50.6092 38.5023 52.5455C37.3 53.0707 36.6988 53.3333 35 53.3333C33.3012 53.3333 32.7 53.0707 31.4976 52.5455C27.0649 50.6092 20 46.049 20 36.6523C20 35.7057 20 34.8327 20 34.0278Z" fill="url(#paint0_linear_2052_9614)"/>
</g>
<path fill-rule="evenodd" clip-rule="evenodd" d="M33.2499 30.6673C34.2871 29.8895 35.7129 29.8895 36.7499 30.6673L42.4166 34.9173C42.9689 35.3315 43.0809 36.115 42.6666 36.6673C42.2524 37.2197 41.4689 37.3315 40.9166 36.9173L35.2499 32.6673C35.1019 32.5562 34.8981 32.5562 34.7499 32.6673L29.0833 36.9173C28.531 37.3315 27.7475 37.2197 27.3333 36.6673C26.9191 36.115 27.031 35.3315 27.5833 34.9173L33.2499 30.6673ZM34.2499 36.584C34.6944 36.2507 35.3056 36.2507 35.7499 36.584L39.0833 39.084C39.6356 39.4982 39.7476 40.2817 39.3333 40.834C38.9191 41.3863 38.1356 41.4982 37.5833 41.084L34.9999 39.1465L32.4166 41.084C31.8644 41.4982 31.0809 41.3863 30.6667 40.834C30.2525 40.2817 30.3644 39.4982 30.9167 39.084L34.2499 36.584Z" fill="white"/>
<defs>
<filter id="filter0_d_2052_9614" x="0" y="0" width="70" height="73.334" filterUnits="userSpaceOnUse" color-interpolation-filters="sRGB">
<feFlood flood-opacity="0" result="BackgroundImageFix"/>
<feColorMatrix in="SourceAlpha" type="matrix" values="0 0 0 0 0 0 0 0 0 0 0 0 0 0 0 0 0 0 127 0" result="hardAlpha"/>
<feOffset/>
<feGaussianBlur stdDeviation="10"/>
<feComposite in2="hardAlpha" operator="out"/>
<feColorMatrix type="matrix" values="0 0 0 0 0.968627 0 0 0 0 0.466667 0 0 0 0 0.384314 0 0 0 0.4 0"/>
<feBlend mode="normal" in2="BackgroundImageFix" result="effect1_dropShadow_2052_9614"/>
<feBlend mode="normal" in="SourceGraphic" in2="effect1_dropShadow_2052_9614" result="shape"/>
</filter>
<linearGradient id="paint0_linear_2052_9614" x1="20" y1="53.3333" x2="53.1492" y2="23.4991" gradientUnits="userSpaceOnUse">
<stop stop-color="#F54B64"/>
<stop offset="1" stop-color="#F78361"/>
</linearGradient>
</defs>
</svg>