<svg xmlns="http://www.w3.org/2000/svg" fill="none" viewBox="20 20 33.33 33.33">
<g filter="url(#filter0_d_2052_9603)">
<path d="M32.6539 22.0005C32.2481 22.3464 32.0452 22.5193 31.8284 22.6646C31.3316 22.9976 30.7736 23.2287 30.1868 23.3445C29.9309 23.3951 29.6651 23.4163 29.1335 23.4587C27.7978 23.5653 27.13 23.6186 26.5729 23.8154C25.2842 24.2706 24.2706 25.2842 23.8154 26.5729C23.6186 27.13 23.5653 27.7978 23.4587 29.1335C23.4163 29.665 23.3951 29.9309 23.3445 30.1868C23.2287 30.7736 22.9976 31.3316 22.6646 31.8284C22.5193 32.0452 22.3464 32.2481 22.0005 32.654C21.1314 33.6738 20.6968 34.1837 20.442 34.7168C19.8527 35.95 19.8527 37.3833 20.442 38.6165C20.6969 39.1497 21.1314 39.6595 22.0005 40.6793C22.3463 41.0852 22.5193 41.2882 22.6646 41.5048C22.9976 42.0017 23.2287 42.5597 23.3445 43.1465C23.3951 43.4025 23.4163 43.6683 23.4587 44.1998C23.5653 45.5355 23.6186 46.2033 23.8154 46.7605C24.2706 48.0492 25.2842 49.0628 26.5729 49.518C27.13 49.7147 27.7978 49.768 29.1333 49.8747C29.6649 49.917 29.9309 49.9383 30.1868 49.9888C30.7736 50.1047 31.3316 50.3358 31.8284 50.6688C32.0452 50.814 32.2481 50.987 32.654 51.3328C33.6738 52.202 34.1837 52.6365 34.7168 52.8913C35.95 53.4807 37.3833 53.4807 38.6165 52.8913C39.1497 52.6365 39.6595 52.202 40.6793 51.3328C41.0852 50.987 41.2882 50.814 41.5048 50.6688C42.0017 50.3358 42.5597 50.1047 43.1465 49.9888C43.4025 49.9383 43.6683 49.917 44.1998 49.8747C45.5353 49.768 46.2033 49.7147 46.7605 49.518C48.0492 49.0628 49.0628 48.0492 49.518 46.7605C49.7147 46.2033 49.768 45.5355 49.8747 44.2C49.917 43.6685 49.9383 43.4025 49.9888 43.1465C50.1047 42.5597 50.3358 42.0017 50.6688 41.5048C50.814 41.2882 50.987 41.0852 51.3328 40.6793C52.202 39.6595 52.6365 39.1497 52.8913 38.6165C53.4807 37.3833 53.4807 35.95 52.8913 34.7168C52.6365 34.1837 52.202 33.6738 51.3328 32.654C50.987 32.2481 50.814 32.0452 50.6688 31.8284C50.3358 31.3316 50.1047 30.7736 49.9888 30.1868C49.9383 29.9309 49.917 29.6651 49.8747 29.1335C49.768 27.7979 49.7147 27.13 49.518 26.5729C49.0628 25.2842 48.0492 24.2706 46.7605 23.8154C46.2033 23.6186 45.5355 23.5653 44.1998 23.4587C43.6683 23.4163 43.4025 23.3951 43.1465 23.3445C42.5597 23.2287 42.0017 22.9976 41.5048 22.6646C41.2882 22.5193 41.0852 22.3464 40.6793 22.0005C39.6595 21.1314 39.1497 20.6969 38.6165 20.442C37.3833 19.8527 35.95 19.8527 34.7168 20.442C34.1837 20.6968 33.6738 21.1315 32.6539 22.0005Z" fill="url(#paint0_linear_2052_9603)"/>
</g>
<path d="M43.9562 33.1046C44.4858 32.5749 44.4858 31.7161 43.9562 31.1864C43.4263 30.6566 42.5675 30.6566 42.0378 31.1864L33.954 39.2702L31.296 36.612C30.7663 36.0823 29.9075 36.0823 29.3778 36.612C28.848 37.1418 28.848 38.0007 29.3778 38.5303L32.9949 42.1475C33.5247 42.6772 34.3835 42.6772 34.9132 42.1475L43.9562 33.1046Z" fill="white"/>
<defs>
<filter id="filter0_d_2052_9603" x="0" y="0" width="73.3333" height="73.334" filterUnits="userSpaceOnUse" color-interpolation-filters="sRGB">
<feFlood flood-opacity="0" result="BackgroundImageFix"/>
<feColorMatrix in="SourceAlpha" type="matrix" values="0 0 0 0 0 0 0 0 0 0 0 0 0 0 0 0 0 0 127 0" result="hardAlpha"/>
<feOffset/>
<feGaussianBlur stdDeviation="10"/>
<feComposite in2="hardAlpha" operator="out"/>
<feColorMatrix type="matrix" values="0 0 0 0 0.968627 0 0 0 0 0.466667 0 0 0 0 0.384314 0 0 0 0.4 0"/>
<feBlend mode="normal" in2="BackgroundImageFix" result="effect1_dropShadow_2052_9603"/>
<feBlend mode="normal" in="SourceGraphic" in2="effect1_dropShadow_2052_9603" result="shape"/>
</filter>
<linearGradient id="paint0_linear_2052_9603" x1="20" y1="53.3333" x2="53.3333" y2="20" gradientUnits="userSpaceOnUse">
<stop stop-color="#F54B64"/>
<stop offset="1" stop-color="#F78361"/>
</linearGradient>
</defs>
</svg>