<svg width="40" height="40" viewBox="0 0 40 40" fill="none" xmlns="http://www.w3.org/2000/svg">
<path opacity="0.5" d="M3.33325 20.0007C3.33325 12.1439 3.33325 8.21553 5.77403 5.77477C8.2148 3.33398 12.1432 3.33398 19.9999 3.33398C27.8566 3.33398 31.7851 3.33398 34.2257 5.77477C36.6666 8.21553 36.6666 12.1439 36.6666 20.0007C36.6666 27.8573 36.6666 31.7858 34.2257 34.2265C31.7851 36.6673 27.8566 36.6673 19.9999 36.6673C12.1432 36.6673 8.2148 36.6673 5.77403 34.2265C3.33325 31.7858 3.33325 27.8573 3.33325 20.0007Z" fill="white"/>
<path fill-rule="evenodd" clip-rule="evenodd" d="M27.7603 4.58398C27.07 4.58398 26.5103 4.02433 26.5103 3.33398C26.5103 2.64363 27.07 2.08398 27.7603 2.08398H36.6667C37.357 2.08398 37.9167 2.64363 37.9167 3.33398V12.2402C37.9167 12.9306 37.357 13.4902 36.6667 13.4902C35.9763 13.4902 35.4167 12.9306 35.4167 12.2402V6.35175L23.0178 18.7507H26.6667C27.357 18.7507 27.9167 19.3103 27.9167 20.0007C27.9167 20.691 27.357 21.2507 26.6667 21.2507H20C19.3097 21.2507 18.75 20.691 18.75 20.0007V13.334C18.75 12.6436 19.3097 12.084 20 12.084C20.6903 12.084 21.25 12.6436 21.25 13.334V16.9828L33.6488 4.58398H27.7603Z" fill="white"/>
</svg>
