<svg width="40" height="40" viewBox="0 0 40 40" fill="none" xmlns="http://www.w3.org/2000/svg">
<path opacity="0.5" d="M23.3333 6.66602H16.6666C10.3812 6.66602 7.2385 6.66602 5.28587 8.61863C3.33325 10.5713 3.33325 13.7139 3.33325 19.9993C3.33325 26.2847 3.33325 29.4275 5.28587 31.38C7.2385 33.3327 10.3812 33.3327 16.6666 33.3327H23.3333C29.6186 33.3327 32.7614 33.3327 34.7139 31.38C36.6666 29.4275 36.6666 26.2847 36.6666 19.9993C36.6666 13.7139 36.6666 10.5713 34.7139 8.61863C32.7614 6.66602 29.6186 6.66602 23.3333 6.66602Z" fill="white"/>
<path d="M22.0833 15C22.0833 14.3097 22.6429 13.75 23.3333 13.75H31.6666C32.3569 13.75 32.9166 14.3097 32.9166 15C32.9166 15.6903 32.3569 16.25 31.6666 16.25H23.3333C22.6429 16.25 22.0833 15.6903 22.0833 15Z" fill="white"/>
<path d="M23.75 20C23.75 19.3097 24.3097 18.75 25 18.75H31.6667C32.357 18.75 32.9167 19.3097 32.9167 20C32.9167 20.6903 32.357 21.25 31.6667 21.25H25C24.3097 21.25 23.75 20.6903 23.75 20Z" fill="white"/>
<path d="M25.4167 25C25.4167 24.3097 25.9764 23.75 26.6667 23.75H31.6667C32.3571 23.75 32.9167 24.3097 32.9167 25C32.9167 25.6903 32.3571 26.25 31.6667 26.25H26.6667C25.9764 26.25 25.4167 25.6903 25.4167 25Z" fill="white"/>
<path d="M15.0001 18.3327C16.8411 18.3327 18.3334 16.8403 18.3334 14.9993C18.3334 13.1584 16.8411 11.666 15.0001 11.666C13.1591 11.666 11.6667 13.1584 11.6667 14.9993C11.6667 16.8403 13.1591 18.3327 15.0001 18.3327Z" fill="white"/>
<path d="M14.9999 28.3327C21.6666 28.3327 21.6666 26.8403 21.6666 24.9993C21.6666 23.1583 18.6818 21.666 14.9999 21.666C11.318 21.666 8.33325 23.1583 8.33325 24.9993C8.33325 26.8403 8.33325 28.3327 14.9999 28.3327Z" fill="white"/>
</svg>
