<svg width="448" height="87" viewBox="0 0 448 87" fill="none" xmlns="http://www.w3.org/2000/svg">
<path opacity="0.52" d="M446.5 84.75C446.914 84.75 447.25 85.0858 447.25 85.5C447.25 85.9142 446.914 86.25 446.5 86.25V84.75ZM8 4C8 6.20914 6.20914 8 4 8C1.79086 8 0 6.20914 0 4C0 1.79086 1.79086 0 4 0C6.20914 0 8 1.79086 8 4ZM76.1274 76.1274L76.6577 75.5971L76.1274 76.1274ZM446.5 86.25H246.5V84.75H446.5V86.25ZM4.53033 3.46967L76.6577 75.5971L75.5971 76.6577L3.46967 4.53033L4.53033 3.46967ZM98.7548 84.75H246.5V86.25H98.7548V84.75ZM76.6577 75.5971C82.5182 81.4576 90.4668 84.75 98.7548 84.75V86.25C90.069 86.25 81.7389 82.7996 75.5971 76.6577L76.6577 75.5971Z" fill="white"/>
</svg>
