<svg width="40" height="40" viewBox="0 0 40 40" fill="none" xmlns="http://www.w3.org/2000/svg">
<path d="M12.9166 31.666C12.9166 32.3563 12.3569 32.916 11.6666 32.916H8.33325C7.6429 32.916 7.08325 32.3563 7.08325 31.666C7.08325 30.9757 7.6429 30.416 8.33325 30.416H11.6666C12.3569 30.416 12.9166 30.9757 12.9166 31.666Z" fill="white"/>
<path opacity="0.4" d="M16.6666 30.0007V10.0007C16.6666 7.6671 16.6666 6.50032 16.2125 5.60902C15.813 4.82502 15.1756 4.1876 14.3916 3.78812C13.5003 3.33398 12.3335 3.33398 9.99992 3.33398C7.66637 3.33398 6.49959 3.33398 5.60829 3.78812C4.82429 4.1876 4.18687 4.82502 3.78739 5.60902C3.33325 6.50032 3.33325 7.6671 3.33325 10.0007V30.0007C3.33325 32.3342 3.33325 33.501 3.78739 34.3923C4.18687 35.1763 4.82429 35.8137 5.60829 36.2132C6.49959 36.6673 7.66637 36.6673 9.99992 36.6673C12.3335 36.6673 13.5003 36.6673 14.3916 36.2132C15.1756 35.8137 15.813 35.1763 16.2125 34.3923C16.6666 33.501 16.6666 32.3342 16.6666 30.0007Z" fill="white"/>
<g opacity="0.7">
<path d="M16.6666 13.7387V30.0008C16.6666 31.5318 16.6666 32.5606 16.5383 33.339L22.0364 27.841L31.7664 17.6916C33.3886 16.0193 34.1998 15.1831 34.4939 14.2246C34.7449 13.4071 34.7383 12.5321 34.4749 11.7186C34.1661 10.7646 33.3331 9.9316 31.6671 8.26568C30.1651 6.78847 29.4139 6.04985 28.5339 5.74178C27.8094 5.48822 27.0291 5.43965 26.2788 5.60147C25.3673 5.79805 24.5304 6.43783 22.8568 7.71742L21.6666 8.73875L16.6666 13.7387Z" fill="white"/>
<path d="M13.3381 36.5391L13.3333 36.5399V36.5439L13.3381 36.5391Z" fill="white"/>
</g>
<path d="M26.3572 23.334H29.8323C32.1658 23.334 33.3327 23.334 34.224 23.7882C35.008 24.1877 35.6453 24.825 36.0448 25.609C36.499 26.5003 36.499 27.6672 36.499 30.0007C36.499 32.3342 36.499 33.501 36.0448 34.3923C35.6453 35.1763 35.008 35.8137 34.224 36.2132C33.3327 36.6673 32.1658 36.6673 29.8323 36.6673H10C11.5287 36.6673 12.5567 36.6673 13.3345 36.5397L13.3333 36.5438L13.3381 36.539C13.746 36.4718 14.0851 36.3693 14.3916 36.2132C15.1756 35.8137 15.813 35.1763 16.2125 34.3923C16.3687 34.0858 16.4712 33.7466 16.5384 33.3388L22.0365 27.8408L26.3572 23.334Z" fill="white"/>
</svg>
