<svg width="366" height="75" viewBox="0 0 366 75" fill="none" xmlns="http://www.w3.org/2000/svg">
<path opacity="0.52" d="M365 0C365.414 0 365.75 0.335786 365.75 0.75C365.75 1.16421 365.414 1.5 365 1.5V0ZM281.5 0.75V0V0.75ZM8 70.75C8 72.9591 6.20914 74.75 4 74.75C1.79086 74.75 0 72.9591 0 70.75C0 68.5409 1.79086 66.75 4 66.75C6.20914 66.75 8 68.5409 8 70.75ZM64.6274 10.1226L65.1577 10.6529L64.6274 10.1226ZM365 1.5H281.5V0H365V1.5ZM87.2548 0H281.5V1.5H87.2548V0ZM3.46967 70.2197L64.0971 9.59226L65.1577 10.6529L4.53033 71.2803L3.46967 70.2197ZM87.2548 1.5C78.9668 1.5 71.0182 4.79241 65.1577 10.6529L64.0971 9.59226C70.2389 3.45045 78.569 0 87.2548 0V1.5Z" fill="white"/>
</svg>
